<svg xmlns="http://www.w3.org/2000/svg" viewBox="0 0 32 32" fill="none">
  <path fill="#FFFFFF" d="M19.11 17.04c-.3-.15-1.76-.86-2.03-.95c-.27-.09-.46-.14-.65.14c-.19.29-.75.95-.92 1.15c-.17.19-.34.22-.64.07c-.3-.15-1.26-.46-2.4-1.47c-.88-.78-1.47-1.74-1.64-2.03c-.17-.29-.02-.45.13-.59c.13-.13.29-.34.44-.5c.15-.17.2-.29.3-.49c.1-.2.05-.36-.02-.5c-.07-.15-.65-1.57-.9-2.14c-.24-.58-.48-.5-.65-.5c-.17 0-.36-.02-.55-.02s-.5.07-.76.36c-.26.29-1 1-1 2.43c0 1.43 1.02 2.81 1.16 3.01c.14.2 2.01 3.06 4.87 4.29c.68.29 1.21.46 1.62.59c.68.22 1.3.19 1.79.12c.55-.08 1.76-.72 2.01-1.42c.25-.7.25-1.3.18-1.42c-.07-.12-.26-.2-.56-.35z"/>
  <path fill="#FFFFFF" d="M26.76 5.24C24.25 2.74 20.99 1.33 17.5 1.33c-7.49 0-13.58 6.09-13.58 13.58c0 2.39.62 4.71 1.8 6.76L3 29l7.49-2.46c1.97 1.08 4.2 1.65 6.48 1.65c7.49 0 13.58-6.09 13.58-13.58c0-3.49-1.41-6.75-3.8-9.37zM16.97 26.1c-2.11 0-4.17-.57-5.95-1.65l-.43-.26l-4.45 1.46l1.46-4.33l-.28-.45c-1.12-1.83-1.7-3.94-1.7-6.08c0-6.36 5.17-11.53 11.53-11.53c3.08 0 5.98 1.2 8.16 3.38c2.18 2.18 3.38 5.08 3.38 8.16c0 6.36-5.17 11.53-11.53 11.53z"/>
</svg>

